<svg xmlns="http://www.w3.org/2000/svg" width="1134.906982421875" height="1195.751953125" viewBox="-629.8779296875 -564.5230712890625 1134.906982421875 1195.751953125"><title>Neo4j Graph Visualization</title><desc>Created using Neo4j (http://www.neo4j.com/)</desc><g class="layer relationships"><g class="relationship" transform="translate(-94.42448598028402 290.376767689671) rotate(261.7742088053272)"><path class="b-outline" fill="#A5ABB6" stroke="none" d="M 40 0.5 L 59.02962458038998 0.5 L 59.02962458038998 -0.5 L 40 -0.5 Z M 118.37728083038998 0.5 L 137.40690541077996 0.5 L 137.40690541077996 3.5 L 144.40690541077996 0 L 137.40690541077996 -3.5 L 137.40690541077996 -0.5 L 118.37728083038998 -0.5 Z"/><text text-anchor="middle" pointer-events="none" font-size="8px" fill="#000000" x="88.70345270538998" y="3" transform="rotate(180 88.70345270538998 0)" font-family="Helvetica Neue, Helvetica, Arial, sans-serif">PUBLISHEDIN</text></g><g class="relationship" transform="translate(-585.8778528979925 -100.23939865455543) rotate(403.20217361273984)"><path class="b-outline" fill="#A5ABB6" stroke="none" d="M 40 0.5 L 53.62182371916978 0.5 L 53.62182371916978 -0.5 L 40 -0.5 Z M 112.96947996916978 0.5 L 126.59130368833956 0.5 L 126.59130368833956 3.5 L 133.59130368833956 0 L 126.59130368833956 -3.5 L 126.59130368833956 -0.5 L 112.96947996916978 -0.5 Z"/><text text-anchor="middle" pointer-events="none" font-size="8px" fill="#000000" x="83.29565184416978" y="3" font-family="Helvetica Neue, Helvetica, Arial, sans-serif">PUBLISHEDIN</text></g><g class="relationship" transform="translate(275.8840145110229 499.1744028739396) rotate(272.2693336489556)"><path class="b-outline" fill="#A5ABB6" stroke="none" d="M 40 0.5 L 54.43323390046466 0.5 L 54.43323390046466 -0.5 L 40 -0.5 Z M 113.78089015046466 0.5 L 128.2141240509293 0.5 L 128.2141240509293 3.5 L 135.2141240509293 0 L 128.2141240509293 -3.5 L 128.2141240509293 -0.5 L 113.78089015046466 -0.5 Z"/><text text-anchor="middle" pointer-events="none" font-size="8px" fill="#000000" x="84.10706202546466" y="3" font-family="Helvetica Neue, Helvetica, Arial, sans-serif">PUBLISHEDIN</text></g><g class="relationship" transform="translate(311.6771921878052 151.47573119592877) rotate(459.48973759081264)"><path class="b-outline" fill="#A5ABB6" stroke="none" d="M 40 0.5 L 54.33469432214525 0.5 L 54.33469432214525 -0.5 L 40 -0.5 Z M 113.68235057214525 0.5 L 128.0170448942905 0.5 L 128.0170448942905 3.5 L 135.0170448942905 0 L 128.0170448942905 -3.5 L 128.0170448942905 -0.5 L 113.68235057214525 -0.5 Z"/><text text-anchor="middle" pointer-events="none" font-size="8px" fill="#000000" x="84.00852244714525" y="3" transform="rotate(180 84.00852244714525 0)" font-family="Helvetica Neue, Helvetica, Arial, sans-serif">PUBLISHEDIN</text></g><g class="relationship" transform="translate(401.03371834278147 453.0027232805291) rotate(227.47776652712582)"><path class="b-outline" fill="#A5ABB6" stroke="none" d="M 40 0.5 L 54.27690796775465 0.5 L 54.27690796775465 -0.5 L 40 -0.5 Z M 113.62456421775465 0.5 L 127.9014721855093 0.5 L 127.9014721855093 3.5 L 134.9014721855093 0 L 127.9014721855093 -3.5 L 127.9014721855093 -0.5 L 113.62456421775465 -0.5 Z"/><text text-anchor="middle" pointer-events="none" font-size="8px" fill="#000000" x="83.95073609275465" y="3" transform="rotate(180 83.95073609275465 0)" font-family="Helvetica Neue, Helvetica, Arial, sans-serif">PUBLISHEDIN</text></g><g class="relationship" transform="translate(90.85566440906068 305.2765836741115) rotate(365.5996007766917)"><path class="b-outline" fill="#A5ABB6" stroke="none" d="M 40 0.5 L 63.269542875985806 0.5 L 63.269542875985806 -0.5 L 40 -0.5 Z M 122.6171991259858 0.5 L 145.8867420019716 0.5 L 145.8867420019716 3.5 L 152.8867420019716 0 L 145.8867420019716 -3.5 L 145.8867420019716 -0.5 L 122.6171991259858 -0.5 Z"/><text text-anchor="middle" pointer-events="none" font-size="8px" fill="#000000" x="92.9433710009858" y="3" font-family="Helvetica Neue, Helvetica, Arial, sans-serif">PUBLISHEDIN</text></g><g class="relationship" transform="translate(-526.4526841988775 -247.85878528595163) rotate(305.67922015168153)"><path class="b-outline" fill="#A5ABB6" stroke="none" d="M 40 0.5 L 59.40056261947839 0.5 L 59.40056261947839 -0.5 L 40 -0.5 Z M 118.74821886947839 0.5 L 138.14878148895679 0.5 L 138.14878148895679 3.5 L 145.14878148895679 0 L 138.14878148895679 -3.5 L 138.14878148895679 -0.5 L 118.74821886947839 -0.5 Z"/><text text-anchor="middle" pointer-events="none" font-size="8px" fill="#000000" x="89.07439074447839" y="3" font-family="Helvetica Neue, Helvetica, Arial, sans-serif">PUBLISHEDIN</text></g><g class="relationship" transform="translate(461.02907069885833 338.0203399609022) rotate(184.46722815703674)"><path class="b-outline" fill="#A5ABB6" stroke="none" d="M 40 0.5 L 56.201241303017326 0.5 L 56.201241303017326 -0.5 L 40 -0.5 Z M 115.54889755301733 0.5 L 131.75013885603465 0.5 L 131.75013885603465 3.5 L 138.75013885603465 0 L 131.75013885603465 -3.5 L 131.75013885603465 -0.5 L 115.54889755301733 -0.5 Z"/><text text-anchor="middle" pointer-events="none" font-size="8px" fill="#000000" x="85.87506942801733" y="3" transform="rotate(180 85.87506942801733 0)" font-family="Helvetica Neue, Helvetica, Arial, sans-serif">PUBLISHEDIN</text></g><g class="relationship" transform="translate(425.7063057978375 213.19965659281138) rotate(502.1835845010922)"><path class="b-outline" fill="#A5ABB6" stroke="none" d="M 40 0.5 L 57.26165870576355 0.5 L 57.26165870576355 -0.5 L 40 -0.5 Z M 116.60931495576355 0.5 L 133.8709736615271 0.5 L 133.8709736615271 3.5 L 140.8709736615271 0 L 133.8709736615271 -3.5 L 133.8709736615271 -0.5 L 116.60931495576355 -0.5 Z"/><text text-anchor="middle" pointer-events="none" font-size="8px" fill="#000000" x="86.93548683076355" y="3" transform="rotate(180 86.93548683076355 0)" font-family="Helvetica Neue, Helvetica, Arial, sans-serif">PUBLISHEDIN</text></g><g class="relationship" transform="translate(36.66106524550877 -93.29423021137943) rotate(514.21615592878)"><path class="b-outline" fill="#A5ABB6" stroke="none" d="M 40 0.5 L 45.08109971260244 0.5 L 45.08109971260244 -0.5 L 40 -0.5 Z M 104.42875596260244 0.5 L 109.50985567520488 0.5 L 109.50985567520488 3.5 L 116.50985567520488 0 L 109.50985567520488 -3.5 L 109.50985567520488 -0.5 L 104.42875596260244 -0.5 Z"/><text text-anchor="middle" pointer-events="none" font-size="8px" fill="#000000" x="74.75492783760244" y="3" transform="rotate(180 74.75492783760244 0)" font-family="Helvetica Neue, Helvetica, Arial, sans-serif">PUBLISHEDIN</text></g><g class="relationship" transform="translate(-387.1651389114593 154.95275626840547) rotate(242.1072668116363)"><path class="b-outline" fill="#A5ABB6" stroke="none" d="M 40 0.5 L 43.96584002690577 0.5 L 43.96584002690577 -0.5 L 40 -0.5 Z M 103.31349627690577 0.5 L 107.27933630381153 0.5 L 107.27933630381153 3.5 L 114.27933630381153 0 L 107.27933630381153 -3.5 L 107.27933630381153 -0.5 L 103.31349627690577 -0.5 Z"/><text text-anchor="middle" pointer-events="none" font-size="8px" fill="#000000" x="73.63966815190577" y="3" transform="rotate(180 73.63966815190577 0)" font-family="Helvetica Neue, Helvetica, Arial, sans-serif">PUBLISHEDIN</text></g><g class="relationship" transform="translate(-549.6918031896175 146.7505984544003) rotate(305.1849258506333)"><path class="b-outline" fill="#A5ABB6" stroke="none" d="M 40 0.5 L 45.227197699766094 0.5 L 45.227197699766094 -0.5 L 40 -0.5 Z M 104.5748539497661 0.5 L 109.80205164953219 0.5 L 109.80205164953219 3.5 L 116.80205164953219 0 L 109.80205164953219 -3.5 L 109.80205164953219 -0.5 L 104.5748539497661 -0.5 Z"/><text text-anchor="middle" pointer-events="none" font-size="8px" fill="#000000" x="74.9010258247661" y="3" font-family="Helvetica Neue, Helvetica, Arial, sans-serif">PUBLISHEDIN</text></g><g class="relationship" transform="translate(308.408672208352 -80.161553661435) rotate(489.7141737806261)"><path class="b-outline" fill="#A5ABB6" stroke="none" d="M 40 0.5 L 59.28452501759007 0.5 L 59.28452501759007 -0.5 L 40 -0.5 Z M 118.63218126759007 0.5 L 137.91670628518014 0.5 L 137.91670628518014 3.5 L 144.91670628518014 0 L 137.91670628518014 -3.5 L 137.91670628518014 -0.5 L 118.63218126759007 -0.5 Z"/><text text-anchor="middle" pointer-events="none" font-size="8px" fill="#000000" x="88.95835314259007" y="3" transform="rotate(180 88.95835314259007 0)" font-family="Helvetica Neue, Helvetica, Arial, sans-serif">PUBLISHEDIN</text></g><g class="relationship" transform="translate(422.85881159267444 28.97856186385735) rotate(248.72031421775972)"><path class="b-outline" fill="#A5ABB6" stroke="none" d="M 40 0.5 L 106.49762826441389 0.5 L 106.49762826441389 -0.5 L 40 -0.5 Z M 165.8452845144139 0.5 L 232.34291277882778 0.5 L 232.34291277882778 3.5 L 239.34291277882778 0 L 232.34291277882778 -3.5 L 232.34291277882778 -0.5 L 165.8452845144139 -0.5 Z"/><text text-anchor="middle" pointer-events="none" font-size="8px" fill="#000000" x="136.1714563894139" y="3" transform="rotate(180 136.1714563894139 0)" font-family="Helvetica Neue, Helvetica, Arial, sans-serif">PUBLISHEDIN</text></g><g class="relationship" transform="translate(53.79216227483694 -402.7950528141587) rotate(404.63255201669904)"><path class="b-outline" fill="#A5ABB6" stroke="none" d="M 40 0.5 L 55.70010802129764 0.5 L 55.70010802129764 -0.5 L 40 -0.5 Z M 115.04776427129764 0.5 L 130.74787229259528 0.5 L 130.74787229259528 3.5 L 137.74787229259528 0 L 130.74787229259528 -3.5 L 130.74787229259528 -0.5 L 115.04776427129764 -0.5 Z"/><text text-anchor="middle" pointer-events="none" font-size="8px" fill="#000000" x="85.37393614629764" y="3" font-family="Helvetica Neue, Helvetica, Arial, sans-serif">PUBLISHEDIN</text></g><g class="relationship" transform="translate(64.03267159348168 32.15750409646854) rotate(198.82430131146003)"><path class="b-outline" fill="#A5ABB6" stroke="none" d="M 40 0.5 L 55.7312687557024 0.5 L 55.7312687557024 -0.5 L 40 -0.5 Z M 115.0789250057024 0.5 L 130.8101937614048 0.5 L 130.8101937614048 3.5 L 137.8101937614048 0 L 130.8101937614048 -3.5 L 130.8101937614048 -0.5 L 115.0789250057024 -0.5 Z"/><text text-anchor="middle" pointer-events="none" font-size="8px" fill="#000000" x="85.4050968807024" y="3" transform="rotate(180 85.4050968807024 0)" font-family="Helvetica Neue, Helvetica, Arial, sans-serif">PUBLISHEDIN</text></g><g class="relationship" transform="translate(-151.85300661030135 -193.5122984417761) rotate(434.2116446003534)"><path class="b-outline" fill="#A5ABB6" stroke="none" d="M 40 0.5 L 54.27341140857921 0.5 L 54.27341140857921 -0.5 L 40 -0.5 Z M 113.62106765857921 0.5 L 127.89447906715841 0.5 L 127.89447906715841 3.5 L 134.89447906715841 0 L 127.89447906715841 -3.5 L 127.89447906715841 -0.5 L 113.62106765857921 -0.5 Z"/><text text-anchor="middle" pointer-events="none" font-size="8px" fill="#000000" x="83.94723953357921" y="3" font-family="Helvetica Neue, Helvetica, Arial, sans-serif">PUBLISHEDIN</text></g><g class="relationship" transform="translate(-290.9902967611937 -520.5230598156948) rotate(496.1942141725204)"><path class="b-outline" fill="#A5ABB6" stroke="none" d="M 40 0.5 L 55.14312419860613 0.5 L 55.14312419860613 -0.5 L 40 -0.5 Z M 114.49078044860613 0.5 L 129.63390464721226 0.5 L 129.63390464721226 3.5 L 136.63390464721226 0 L 129.63390464721226 -3.5 L 129.63390464721226 -0.5 L 114.49078044860613 -0.5 Z"/><text text-anchor="middle" pointer-events="none" font-size="8px" fill="#000000" x="84.81695232360613" y="3" transform="rotate(180 84.81695232360613 0)" font-family="Helvetica Neue, Helvetica, Arial, sans-serif">PUBLISHEDIN</text></g><g class="relationship" transform="translate(-271.78252991207995 57.807182934009546) rotate(191.80808219560447)"><path class="b-outline" fill="#A5ABB6" stroke="none" d="M 40 0.5 L 62.63217588711014 0.5 L 62.63217588711014 -0.5 L 40 -0.5 Z M 121.97983213711014 0.5 L 144.61200802422027 0.5 L 144.61200802422027 3.5 L 151.61200802422027 0 L 144.61200802422027 -3.5 L 144.61200802422027 -0.5 L 121.97983213711014 -0.5 Z"/><text text-anchor="middle" pointer-events="none" font-size="8px" fill="#000000" x="92.30600401211014" y="3" transform="rotate(180 92.30600401211014 0)" font-family="Helvetica Neue, Helvetica, Arial, sans-serif">PUBLISHEDIN</text></g><g class="relationship" transform="translate(156.98961456425474 446.99704563226635) rotate(315.6755902813867)"><path class="b-outline" fill="#A5ABB6" stroke="none" d="M 40 0.5 L 54.772222729482706 0.5 L 54.772222729482706 -0.5 L 40 -0.5 Z M 114.1198789794827 0.5 L 128.8921017089654 0.5 L 128.8921017089654 3.5 L 135.8921017089654 0 L 128.8921017089654 -3.5 L 128.8921017089654 -0.5 L 114.1198789794827 -0.5 Z"/><text text-anchor="middle" pointer-events="none" font-size="8px" fill="#000000" x="84.4460508544827" y="3" font-family="Helvetica Neue, Helvetica, Arial, sans-serif">PUBLISHEDIN</text></g><g class="relationship" transform="translate(-23.998490399066934 -299.61786143601523) rotate(202.97593456888296)"><path class="b-outline" fill="#A5ABB6" stroke="none" d="M 40 0.5 L 57.00049088974025 0.5 L 57.00049088974025 -0.5 L 40 -0.5 Z M 116.34814713974025 0.5 L 133.3486380294805 0.5 L 133.3486380294805 3.5 L 140.3486380294805 0 L 133.3486380294805 -3.5 L 133.3486380294805 -0.5 L 116.34814713974025 -0.5 Z"/><text text-anchor="middle" pointer-events="none" font-size="8px" fill="#000000" x="86.67431901474025" y="3" transform="rotate(180 86.67431901474025 0)" font-family="Helvetica Neue, Helvetica, Arial, sans-serif">PUBLISHEDIN</text></g><g class="relationship" transform="translate(2.8005619277765716 146.19818315663514) rotate(238.01058214226651)"><path class="b-outline" fill="#A5ABB6" stroke="none" d="M 40 0.5 L 67.87846795029246 0.5 L 67.87846795029246 -0.5 L 40 -0.5 Z M 127.22612420029246 0.5 L 155.10459215058492 0.5 L 155.10459215058492 3.5 L 162.10459215058492 0 L 155.10459215058492 -3.5 L 155.10459215058492 -0.5 L 127.22612420029246 -0.5 Z"/><text text-anchor="middle" pointer-events="none" font-size="8px" fill="#000000" x="97.55229607529246" y="3" transform="rotate(180 97.55229607529246 0)" font-family="Helvetica Neue, Helvetica, Arial, sans-serif">PUBLISHEDIN</text></g><g class="relationship" transform="translate(-409.8547731343053 -114.2270985747914) rotate(470.43341599763613)"><path class="b-outline" fill="#A5ABB6" stroke="none" d="M 40 0.5 L 40.58613141046155 0.5 L 40.58613141046155 -0.5 L 40 -0.5 Z M 94.15644391046155 0.5 L 94.7425753209231 0.5 L 94.7425753209231 3.5 L 101.7425753209231 0 L 94.7425753209231 -3.5 L 94.7425753209231 -0.5 L 94.15644391046155 -0.5 Z"/><text text-anchor="middle" pointer-events="none" font-size="8px" fill="#000000" x="67.37128766046155" y="3" transform="rotate(180 67.37128766046155 0)" font-family="Helvetica Neue, Helvetica, Arial, sans-serif">PUBLISHE…</text></g><g class="relationship" transform="translate(-431.3643853248406 427.51205329620507) rotate(391.8560034379402)"><path class="b-outline" fill="#A5ABB6" stroke="none" d="M 40 0.5 L 52.61670943358865 0.5 L 52.61670943358865 -0.5 L 40 -0.5 Z M 111.96436568358865 0.5 L 124.5810751171773 0.5 L 124.5810751171773 3.5 L 131.5810751171773 0 L 124.5810751171773 -3.5 L 124.5810751171773 -0.5 L 111.96436568358865 -0.5 Z"/><text text-anchor="middle" pointer-events="none" font-size="8px" fill="#000000" x="82.29053755858865" y="3" font-family="Helvetica Neue, Helvetica, Arial, sans-serif">PUBLISHEDIN</text></g><g class="relationship" transform="translate(-128.46745049152563 587.2289005015896) rotate(203.752049585983)"><path class="b-outline" fill="#A5ABB6" stroke="none" d="M 40 0.5 L 52.6780136667068 0.5 L 52.6780136667068 -0.5 L 40 -0.5 Z M 112.0256699167068 0.5 L 124.7036835834136 0.5 L 124.7036835834136 3.5 L 131.7036835834136 0 L 124.7036835834136 -3.5 L 124.7036835834136 -0.5 L 112.0256699167068 -0.5 Z"/><text text-anchor="middle" pointer-events="none" font-size="8px" fill="#000000" x="82.3518417917068" y="3" transform="rotate(180 82.3518417917068 0)" font-family="Helvetica Neue, Helvetica, Arial, sans-serif">PUBLISHEDIN</text></g><g class="relationship" transform="translate(90.85566440906068 305.2765836741115) rotate(184.59770454296728)"><path class="b-outline" fill="#A5ABB6" stroke="none" d="M 40 0.5 L 74.65984805955969 0.5 L 74.65984805955969 -0.5 L 40 -0.5 Z M 104.21844180955969 0.5 L 138.87828986911939 0.5 L 138.87828986911939 3.5 L 145.87828986911939 0 L 138.87828986911939 -3.5 L 138.87828986911939 -0.5 L 104.21844180955969 -0.5 Z"/><text text-anchor="middle" pointer-events="none" font-size="8px" fill="#000000" x="89.43914493455969" y="3" transform="rotate(180 89.43914493455969 0)" font-family="Helvetica Neue, Helvetica, Arial, sans-serif">CITES</text></g><g class="relationship" transform="translate(2.8005619277765716 146.19818315663514) rotate(278.04739389640883)"><path class="b-outline" fill="#A5ABB6" stroke="none" d="M 40 0.5 L 102.65782495465795 0.5 L 102.65782495465795 -0.5 L 40 -0.5 Z M 132.21641870465794 0.5 L 194.8742436593159 0.5 L 194.8742436593159 3.5 L 201.8742436593159 0 L 194.8742436593159 -3.5 L 194.8742436593159 -0.5 L 132.21641870465794 -0.5 Z"/><text text-anchor="middle" pointer-events="none" font-size="8px" fill="#000000" x="117.43712182965795" y="3" font-family="Helvetica Neue, Helvetica, Arial, sans-serif">CITES</text></g><g class="relationship" transform="translate(2.8005619277765716 146.19818315663514) rotate(483.99327081203376)"><path class="b-outline" fill="#A5ABB6" stroke="none" d="M 40 0.5 L 68.66921400741023 0.5 L 68.66921400741023 -0.5 L 40 -0.5 Z M 98.22780775741023 0.5 L 126.89702176482047 0.5 L 126.89702176482047 3.5 L 133.89702176482047 0 L 126.89702176482047 -3.5 L 126.89702176482047 -0.5 L 98.22780775741023 -0.5 Z"/><text text-anchor="middle" pointer-events="none" font-size="8px" fill="#000000" x="83.44851088241023" y="3" transform="rotate(180 83.44851088241023 0)" font-family="Helvetica Neue, Helvetica, Arial, sans-serif">CITES</text></g><g class="relationship" transform="translate(2.8005619277765716 146.19818315663514) rotate(421.0340362413062)"><path class="b-outline" fill="#A5ABB6" stroke="none" d="M 40 0.5 L 72.6322515995861 0.5 L 72.6322515995861 -0.5 L 40 -0.5 Z M 102.1908453495861 0.5 L 134.8230969491722 0.5 L 134.8230969491722 3.5 L 141.8230969491722 0 L 134.8230969491722 -3.5 L 134.8230969491722 -0.5 L 102.1908453495861 -0.5 Z"/><text text-anchor="middle" pointer-events="none" font-size="8px" fill="#000000" x="87.4115484745861" y="3" font-family="Helvetica Neue, Helvetica, Arial, sans-serif">CITES</text></g><g class="relationship" transform="translate(-409.8547731343053 -114.2270985747914) rotate(535.4565299681506)"><path class="b-outline" fill="#A5ABB6" stroke="none" d="M 40 0.5 L 70.00968935566182 0.5 L 70.00968935566182 -0.5 L 40 -0.5 Z M 99.56828310566182 0.5 L 129.57797246132364 0.5 L 129.57797246132364 3.5 L 136.57797246132364 0 L 129.57797246132364 -3.5 L 129.57797246132364 -0.5 L 99.56828310566182 -0.5 Z"/><text text-anchor="middle" pointer-events="none" font-size="8px" fill="#000000" x="84.78898623066182" y="3" transform="rotate(180 84.78898623066182 0)" font-family="Helvetica Neue, Helvetica, Arial, sans-serif">CITES</text></g></g><g class="layer nodes"><g class="node" aria-label="graph-node1" transform="translate(-94.42448598028402,290.376767689671)" style="touch-action: none; -webkit-tap-highlight-color: rgba(0, 0, 0, 0);"><circle class="b-outline" cx="0" cy="0" r="40" fill="#C990C0" stroke="#b261a5" stroke-width="2px"/><text class="caption" text-anchor="middle" pointer-events="none" x="0" y="-15" font-size="10px" fill="#FFFFFF" font-family="Helvetica Neue, Helvetica, Arial, sans-serif"> Domain Walls</text><text class="caption" text-anchor="middle" pointer-events="none" x="0" y="-5" font-size="10px" fill="#FFFFFF" font-family="Helvetica Neue, Helvetica, Arial, sans-serif"> and Massive</text><text class="caption" text-anchor="middle" pointer-events="none" x="0" y="5" font-size="10px" fill="#FFFFFF" font-family="Helvetica Neue, Helvetica, Arial, sans-serif"> Gauged</text><text class="caption" text-anchor="middle" pointer-events="none" x="0" y="15" font-size="10px" fill="#FFFFFF" font-family="Helvetica Neue, Helvetica, Arial, sans-serif"> Supergravity</text><text class="caption" text-anchor="middle" pointer-events="none" x="0" y="25" font-size="10px" fill="#FFFFFF" font-family="Helvetica Neue, Helvetica, Arial, sans-serif"> Poten</text></g><g class="node" aria-label="graph-node29555" transform="translate(-120.80840409068385,107.86705389798249)" style="touch-action: none; -webkit-tap-highlight-color: rgba(0, 0, 0, 0);"><circle class="b-outline" cx="0" cy="0" r="40" fill="#F16667" stroke="#eb2728" stroke-width="2px"/><text class="caption" text-anchor="middle" pointer-events="none" x="0" y="5" font-size="10px" fill="#FFFFFF" font-family="Helvetica Neue, Helvetica, Arial, sans-serif"> Class.Quant.Gr…</text></g><g class="node" aria-label="graph-node3" transform="translate(-585.8778528979925,-100.23939865455543)" style="touch-action: none; -webkit-tap-highlight-color: rgba(0, 0, 0, 0);"><circle class="b-outline" cx="0" cy="0" r="40" fill="#C990C0" stroke="#b261a5" stroke-width="2px"/><text class="caption" text-anchor="middle" pointer-events="none" x="0" y="-5" font-size="10px" fill="#FFFFFF" font-family="Helvetica Neue, Helvetica, Arial, sans-serif"> Moving Mirrors</text><text class="caption" text-anchor="middle" pointer-events="none" x="0" y="5" font-size="10px" fill="#FFFFFF" font-family="Helvetica Neue, Helvetica, Arial, sans-serif"> and</text><text class="caption" text-anchor="middle" pointer-events="none" x="0" y="15" font-size="10px" fill="#FFFFFF" font-family="Helvetica Neue, Helvetica, Arial, sans-serif"> Thermodyna…</text></g><g class="node" aria-label="graph-node29556" transform="translate(-459.3397466790506,18.596826423242785)" style="touch-action: none; -webkit-tap-highlight-color: rgba(0, 0, 0, 0);"><circle class="b-outline" cx="0" cy="0" r="40" fill="#F16667" stroke="#eb2728" stroke-width="2px"/><text class="caption" text-anchor="middle" pointer-events="none" x="0" y="5" font-size="10px" fill="#FFFFFF" font-family="Helvetica Neue, Helvetica, Arial, sans-serif"> Phys.Rev.</text></g><g class="node" aria-label="graph-node7" transform="translate(275.8840145110229,499.1744028739396)" style="touch-action: none; -webkit-tap-highlight-color: rgba(0, 0, 0, 0);"><circle class="b-outline" cx="0" cy="0" r="40" fill="#C990C0" stroke="#b261a5" stroke-width="2px"/><text class="caption" text-anchor="middle" pointer-events="none" x="0" y="-10" font-size="10px" fill="#FFFFFF" font-family="Helvetica Neue, Helvetica, Arial, sans-serif"> N=0</text><text class="caption" text-anchor="middle" pointer-events="none" x="0" y="0" font-size="10px" fill="#FFFFFF" font-family="Helvetica Neue, Helvetica, Arial, sans-serif"> Supersymmetry</text><text class="caption" text-anchor="middle" pointer-events="none" x="0" y="10" font-size="10px" fill="#FFFFFF" font-family="Helvetica Neue, Helvetica, Arial, sans-serif"> and the</text><text class="caption" text-anchor="middle" pointer-events="none" x="0" y="20" font-size="10px" fill="#FFFFFF" font-family="Helvetica Neue, Helvetica, Arial, sans-serif"> Non-Relativ…</text></g><g class="node" aria-label="graph-node29557" transform="translate(282.821966288309,324.0976937088696)" style="touch-action: none; -webkit-tap-highlight-color: rgba(0, 0, 0, 0);"><circle class="b-outline" cx="0" cy="0" r="40" fill="#F16667" stroke="#eb2728" stroke-width="2px"/><text class="caption" text-anchor="middle" pointer-events="none" x="0" y="5" font-size="10px" fill="#FFFFFF" font-family="Helvetica Neue, Helvetica, Arial, sans-serif"> Phys.Lett.</text></g><g class="node" aria-label="graph-node9" transform="translate(311.6771921878052,151.47573119592877)" style="touch-action: none; -webkit-tap-highlight-color: rgba(0, 0, 0, 0);"><circle class="b-outline" cx="0" cy="0" r="40" fill="#C990C0" stroke="#b261a5" stroke-width="2px"/><text class="caption" text-anchor="middle" pointer-events="none" x="0" y="-10" font-size="10px" fill="#FFFFFF" font-family="Helvetica Neue, Helvetica, Arial, sans-serif"> Instantons </text><text class="caption" text-anchor="middle" pointer-events="none" x="0" y="0" font-size="10px" fill="#FFFFFF" font-family="Helvetica Neue, Helvetica, Arial, sans-serif"> Euclidean</text><text class="caption" text-anchor="middle" pointer-events="none" x="0" y="10" font-size="10px" fill="#FFFFFF" font-family="Helvetica Neue, Helvetica, Arial, sans-serif"> supersymmetry</text><text class="caption" text-anchor="middle" pointer-events="none" x="0" y="20" font-size="10px" fill="#FFFFFF" font-family="Helvetica Neue, Helvetica, Arial, sans-serif"> and r…</text></g><g class="node" aria-label="graph-node10" transform="translate(401.03371834278147,453.0027232805291)" style="touch-action: none; -webkit-tap-highlight-color: rgba(0, 0, 0, 0);"><circle class="b-outline" cx="0" cy="0" r="40" fill="#C990C0" stroke="#b261a5" stroke-width="2px"/><text class="caption" text-anchor="middle" pointer-events="none" x="0" y="5" font-size="10px" fill="#FFFFFF" font-family="Helvetica Neue, Helvetica, Arial, sans-serif"> Noncommutativ…</text></g><g class="node" aria-label="graph-node12" transform="translate(90.85566440906068,305.2765836741115)" style="touch-action: none; -webkit-tap-highlight-color: rgba(0, 0, 0, 0);"><circle class="b-outline" cx="0" cy="0" r="40" fill="#C990C0" stroke="#b261a5" stroke-width="2px"/><text class="caption" text-anchor="middle" pointer-events="none" x="0" y="-10" font-size="10px" fill="#FFFFFF" font-family="Helvetica Neue, Helvetica, Arial, sans-serif"> Gravity and the</text><text class="caption" text-anchor="middle" pointer-events="none" x="0" y="0" font-size="10px" fill="#FFFFFF" font-family="Helvetica Neue, Helvetica, Arial, sans-serif"> Newtonian limit</text><text class="caption" text-anchor="middle" pointer-events="none" x="0" y="10" font-size="10px" fill="#FFFFFF" font-family="Helvetica Neue, Helvetica, Arial, sans-serif"> in the</text><text class="caption" text-anchor="middle" pointer-events="none" x="0" y="20" font-size="10px" fill="#FFFFFF" font-family="Helvetica Neue, Helvetica, Arial, sans-serif"> Randall-Sun</text></g><g class="node" aria-label="graph-node14" transform="translate(-526.4526841988775,-247.85878528595163)" style="touch-action: none; -webkit-tap-highlight-color: rgba(0, 0, 0, 0);"><circle class="b-outline" cx="0" cy="0" r="40" fill="#C990C0" stroke="#b261a5" stroke-width="2px"/><text class="caption" text-anchor="middle" pointer-events="none" x="0" y="-10" font-size="10px" fill="#FFFFFF" font-family="Helvetica Neue, Helvetica, Arial, sans-serif"> Canonical</text><text class="caption" text-anchor="middle" pointer-events="none" x="0" y="0" font-size="10px" fill="#FFFFFF" font-family="Helvetica Neue, Helvetica, Arial, sans-serif"> Quantization and</text><text class="caption" text-anchor="middle" pointer-events="none" x="0" y="10" font-size="10px" fill="#FFFFFF" font-family="Helvetica Neue, Helvetica, Arial, sans-serif"> Topological</text><text class="caption" text-anchor="middle" pointer-events="none" x="0" y="20" font-size="10px" fill="#FFFFFF" font-family="Helvetica Neue, Helvetica, Arial, sans-serif"> Theories</text></g><g class="node" aria-label="graph-node29558" transform="translate(-418.4652778006463,-398.2542351713412)" style="touch-action: none; -webkit-tap-highlight-color: rgba(0, 0, 0, 0);"><circle class="b-outline" cx="0" cy="0" r="40" fill="#F16667" stroke="#eb2728" stroke-width="2px"/><text class="caption" text-anchor="middle" pointer-events="none" x="0" y="5" font-size="10px" fill="#FFFFFF" font-family="Helvetica Neue, Helvetica, Arial, sans-serif"> Nucl.Phys.Proc…</text></g><g class="node" aria-label="graph-node15" transform="translate(461.02907069885833,338.0203399609022)" style="touch-action: none; -webkit-tap-highlight-color: rgba(0, 0, 0, 0);"><circle class="b-outline" cx="0" cy="0" r="40" fill="#C990C0" stroke="#b261a5" stroke-width="2px"/><text class="caption" text-anchor="middle" pointer-events="none" x="0" y="-5" font-size="10px" fill="#FFFFFF" font-family="Helvetica Neue, Helvetica, Arial, sans-serif"> A Comment on</text><text class="caption" text-anchor="middle" pointer-events="none" x="0" y="5" font-size="10px" fill="#FFFFFF" font-family="Helvetica Neue, Helvetica, Arial, sans-serif"> the Holographic</text><text class="caption" text-anchor="middle" pointer-events="none" x="0" y="15" font-size="10px" fill="#FFFFFF" font-family="Helvetica Neue, Helvetica, Arial, sans-serif"> Renormalizat…</text></g><g class="node" aria-label="graph-node16" transform="translate(425.7063057978375,213.19965659281138)" style="touch-action: none; -webkit-tap-highlight-color: rgba(0, 0, 0, 0);"><circle class="b-outline" cx="0" cy="0" r="40" fill="#C990C0" stroke="#b261a5" stroke-width="2px"/><text class="caption" text-anchor="middle" pointer-events="none" x="0" y="-5" font-size="10px" fill="#FFFFFF" font-family="Helvetica Neue, Helvetica, Arial, sans-serif"> The Interaction</text><text class="caption" text-anchor="middle" pointer-events="none" x="0" y="5" font-size="10px" fill="#FFFFFF" font-family="Helvetica Neue, Helvetica, Arial, sans-serif"> of Two Hopf</text><text class="caption" text-anchor="middle" pointer-events="none" x="0" y="15" font-size="10px" fill="#FFFFFF" font-family="Helvetica Neue, Helvetica, Arial, sans-serif"> Solitons</text></g><g class="node" aria-label="graph-node17" transform="translate(36.66106524550877,-93.29423021137943)" style="touch-action: none; -webkit-tap-highlight-color: rgba(0, 0, 0, 0);"><circle class="b-outline" cx="0" cy="0" r="40" fill="#C990C0" stroke="#b261a5" stroke-width="2px"/><text class="caption" text-anchor="middle" pointer-events="none" x="0" y="0" font-size="10px" fill="#FFFFFF" font-family="Helvetica Neue, Helvetica, Arial, sans-serif"> Solitons in Brane</text><text class="caption" text-anchor="middle" pointer-events="none" x="0" y="10" font-size="10px" fill="#FFFFFF" font-family="Helvetica Neue, Helvetica, Arial, sans-serif"> Worlds II</text></g><g class="node" aria-label="graph-node29559" transform="translate(-104.26689762924546,-25.216008998972924)" style="touch-action: none; -webkit-tap-highlight-color: rgba(0, 0, 0, 0);"><circle class="b-outline" cx="0" cy="0" r="40" fill="#F16667" stroke="#eb2728" stroke-width="2px"/><text class="caption" text-anchor="middle" pointer-events="none" x="0" y="5" font-size="10px" fill="#FFFFFF" font-family="Helvetica Neue, Helvetica, Arial, sans-serif"> Nucl.Phys.</text></g><g class="node" aria-label="graph-node18" transform="translate(-387.1651389114593,154.95275626840547)" style="touch-action: none; -webkit-tap-highlight-color: rgba(0, 0, 0, 0);"><circle class="b-outline" cx="0" cy="0" r="40" fill="#C990C0" stroke="#b261a5" stroke-width="2px"/><text class="caption" text-anchor="middle" pointer-events="none" x="0" y="-10" font-size="10px" fill="#FFFFFF" font-family="Helvetica Neue, Helvetica, Arial, sans-serif"> Casimir energy</text><text class="caption" text-anchor="middle" pointer-events="none" x="0" y="0" font-size="10px" fill="#FFFFFF" font-family="Helvetica Neue, Helvetica, Arial, sans-serif"> of a dilute</text><text class="caption" text-anchor="middle" pointer-events="none" x="0" y="10" font-size="10px" fill="#FFFFFF" font-family="Helvetica Neue, Helvetica, Arial, sans-serif"> dielectric ball</text><text class="caption" text-anchor="middle" pointer-events="none" x="0" y="20" font-size="10px" fill="#FFFFFF" font-family="Helvetica Neue, Helvetica, Arial, sans-serif"> with un</text></g><g class="node" aria-label="graph-node20" transform="translate(-549.6918031896175,146.7505984544003)" style="touch-action: none; -webkit-tap-highlight-color: rgba(0, 0, 0, 0);"><circle class="b-outline" cx="0" cy="0" r="40" fill="#C990C0" stroke="#b261a5" stroke-width="2px"/><text class="caption" text-anchor="middle" pointer-events="none" x="0" y="-5" font-size="10px" fill="#FFFFFF" font-family="Helvetica Neue, Helvetica, Arial, sans-serif"> A Two-loop Test</text><text class="caption" text-anchor="middle" pointer-events="none" x="0" y="5" font-size="10px" fill="#FFFFFF" font-family="Helvetica Neue, Helvetica, Arial, sans-serif"> of Buscher s</text><text class="caption" text-anchor="middle" pointer-events="none" x="0" y="15" font-size="10px" fill="#FFFFFF" font-family="Helvetica Neue, Helvetica, Arial, sans-serif"> T-duality I</text></g><g class="node" aria-label="graph-node21" transform="translate(308.408672208352,-80.161553661435)" style="touch-action: none; -webkit-tap-highlight-color: rgba(0, 0, 0, 0);"><circle class="b-outline" cx="0" cy="0" r="40" fill="#C990C0" stroke="#b261a5" stroke-width="2px"/><text class="caption" text-anchor="middle" pointer-events="none" x="0" y="-10" font-size="10px" fill="#FFFFFF" font-family="Helvetica Neue, Helvetica, Arial, sans-serif"> Supersymmetry</text><text class="caption" text-anchor="middle" pointer-events="none" x="0" y="0" font-size="10px" fill="#FFFFFF" font-family="Helvetica Neue, Helvetica, Arial, sans-serif"> and Bogomol nyi</text><text class="caption" text-anchor="middle" pointer-events="none" x="0" y="10" font-size="10px" fill="#FFFFFF" font-family="Helvetica Neue, Helvetica, Arial, sans-serif"> equations in the</text><text class="caption" text-anchor="middle" pointer-events="none" x="0" y="20" font-size="10px" fill="#FFFFFF" font-family="Helvetica Neue, Helvetica, Arial, sans-serif"> Max</text></g><g class="node" aria-label="graph-node29560" transform="translate(190.25463910159874,62.08405338485602)" style="touch-action: none; -webkit-tap-highlight-color: rgba(0, 0, 0, 0);"><circle class="b-outline" cx="0" cy="0" r="40" fill="#F16667" stroke="#eb2728" stroke-width="2px"/><text class="caption" text-anchor="middle" pointer-events="none" x="0" y="5" font-size="10px" fill="#FFFFFF" font-family="Helvetica Neue, Helvetica, Arial, sans-serif"> Acta Phys.Polon.</text></g><g class="node" aria-label="graph-node22" transform="translate(422.85881159267444,28.97856186385735)" style="touch-action: none; -webkit-tap-highlight-color: rgba(0, 0, 0, 0);"><circle class="b-outline" cx="0" cy="0" r="40" fill="#C990C0" stroke="#b261a5" stroke-width="2px"/><text class="caption" text-anchor="middle" pointer-events="none" x="0" y="-10" font-size="10px" fill="#FFFFFF" font-family="Helvetica Neue, Helvetica, Arial, sans-serif"> The String</text><text class="caption" text-anchor="middle" pointer-events="none" x="0" y="0" font-size="10px" fill="#FFFFFF" font-family="Helvetica Neue, Helvetica, Arial, sans-serif"> Uncertainty</text><text class="caption" text-anchor="middle" pointer-events="none" x="0" y="10" font-size="10px" fill="#FFFFFF" font-family="Helvetica Neue, Helvetica, Arial, sans-serif"> Relations follow</text><text class="caption" text-anchor="middle" pointer-events="none" x="0" y="20" font-size="10px" fill="#FFFFFF" font-family="Helvetica Neue, Helvetica, Arial, sans-serif"> from the N</text></g><g class="node" aria-label="graph-node29561" transform="translate(321.47943683233837,-231.31873987583248)" style="touch-action: none; -webkit-tap-highlight-color: rgba(0, 0, 0, 0);"><circle class="b-outline" cx="0" cy="0" r="40" fill="#F16667" stroke="#eb2728" stroke-width="2px"/><text class="caption" text-anchor="middle" pointer-events="none" x="0" y="5" font-size="10px" fill="#FFFFFF" font-family="Helvetica Neue, Helvetica, Arial, sans-serif"> Found.Phys.</text></g><g class="node" aria-label="graph-node23" transform="translate(53.79216227483694,-402.7950528141587)" style="touch-action: none; -webkit-tap-highlight-color: rgba(0, 0, 0, 0);"><circle class="b-outline" cx="0" cy="0" r="40" fill="#C990C0" stroke="#b261a5" stroke-width="2px"/><text class="caption" text-anchor="middle" pointer-events="none" x="0" y="-5" font-size="10px" fill="#FFFFFF" font-family="Helvetica Neue, Helvetica, Arial, sans-serif"> BPS states of</text><text class="caption" text-anchor="middle" pointer-events="none" x="0" y="5" font-size="10px" fill="#FFFFFF" font-family="Helvetica Neue, Helvetica, Arial, sans-serif"> D=4 N=1</text><text class="caption" text-anchor="middle" pointer-events="none" x="0" y="15" font-size="10px" fill="#FFFFFF" font-family="Helvetica Neue, Helvetica, Arial, sans-serif"> supersymme…</text></g><g class="node" aria-label="graph-node29562" transform="translate(180.28234916003072,-277.9169573518499)" style="touch-action: none; -webkit-tap-highlight-color: rgba(0, 0, 0, 0);"><circle class="b-outline" cx="0" cy="0" r="40" fill="#F16667" stroke="#eb2728" stroke-width="2px"/><text class="caption" text-anchor="middle" pointer-events="none" x="0" y="5" font-size="10px" fill="#FFFFFF" font-family="Helvetica Neue, Helvetica, Arial, sans-serif"> Commun.Math.…</text></g><g class="node" aria-label="graph-node24" transform="translate(64.03267159348168,32.15750409646854)" style="touch-action: none; -webkit-tap-highlight-color: rgba(0, 0, 0, 0);"><circle class="b-outline" cx="0" cy="0" r="40" fill="#C990C0" stroke="#b261a5" stroke-width="2px"/><text class="caption" text-anchor="middle" pointer-events="none" x="0" y="-15" font-size="10px" fill="#FFFFFF" font-family="Helvetica Neue, Helvetica, Arial, sans-serif"> Collapsing</text><text class="caption" text-anchor="middle" pointer-events="none" x="0" y="-5" font-size="10px" fill="#FFFFFF" font-family="Helvetica Neue, Helvetica, Arial, sans-serif"> D-Branes in</text><text class="caption" text-anchor="middle" pointer-events="none" x="0" y="5" font-size="10px" fill="#FFFFFF" font-family="Helvetica Neue, Helvetica, Arial, sans-serif"> Calabi-Yau</text><text class="caption" text-anchor="middle" pointer-events="none" x="0" y="15" font-size="10px" fill="#FFFFFF" font-family="Helvetica Neue, Helvetica, Arial, sans-serif"> Moduli Space:</text><text class="caption" text-anchor="middle" pointer-events="none" x="0" y="25" font-size="10px" fill="#FFFFFF" font-family="Helvetica Neue, Helvetica, Arial, sans-serif"> I</text></g><g class="node" aria-label="graph-node26" transform="translate(-151.85300661030135,-193.5122984417761)" style="touch-action: none; -webkit-tap-highlight-color: rgba(0, 0, 0, 0);"><circle class="b-outline" cx="0" cy="0" r="40" fill="#C990C0" stroke="#b261a5" stroke-width="2px"/><text class="caption" text-anchor="middle" pointer-events="none" x="0" y="-5" font-size="10px" fill="#FFFFFF" font-family="Helvetica Neue, Helvetica, Arial, sans-serif"> Bi-local Fields in</text><text class="caption" text-anchor="middle" pointer-events="none" x="0" y="5" font-size="10px" fill="#FFFFFF" font-family="Helvetica Neue, Helvetica, Arial, sans-serif"> Noncommutative</text><text class="caption" text-anchor="middle" pointer-events="none" x="0" y="15" font-size="10px" fill="#FFFFFF" font-family="Helvetica Neue, Helvetica, Arial, sans-serif"> Field Theory</text></g><g class="node" aria-label="graph-node27" transform="translate(-290.9902967611937,-520.5230598156948)" style="touch-action: none; -webkit-tap-highlight-color: rgba(0, 0, 0, 0);"><circle class="b-outline" cx="0" cy="0" r="40" fill="#C990C0" stroke="#b261a5" stroke-width="2px"/><text class="caption" text-anchor="middle" pointer-events="none" x="0" y="-10" font-size="10px" fill="#FFFFFF" font-family="Helvetica Neue, Helvetica, Arial, sans-serif"> Tree</text><text class="caption" text-anchor="middle" pointer-events="none" x="0" y="0" font-size="10px" fill="#FFFFFF" font-family="Helvetica Neue, Helvetica, Arial, sans-serif"> Amplitudes and</text><text class="caption" text-anchor="middle" pointer-events="none" x="0" y="10" font-size="10px" fill="#FFFFFF" font-family="Helvetica Neue, Helvetica, Arial, sans-serif"> Linearized</text><text class="caption" text-anchor="middle" pointer-events="none" x="0" y="20" font-size="10px" fill="#FFFFFF" font-family="Helvetica Neue, Helvetica, Arial, sans-serif"> Invar…</text></g><g class="node" aria-label="graph-node29" transform="translate(-271.78252991207995,57.807182934009546)" style="touch-action: none; -webkit-tap-highlight-color: rgba(0, 0, 0, 0);"><circle class="b-outline" cx="0" cy="0" r="40" fill="#C990C0" stroke="#b261a5" stroke-width="2px"/><text class="caption" text-anchor="middle" pointer-events="none" x="0" y="-10" font-size="10px" fill="#FFFFFF" font-family="Helvetica Neue, Helvetica, Arial, sans-serif"> A geometric</text><text class="caption" text-anchor="middle" pointer-events="none" x="0" y="0" font-size="10px" fill="#FFFFFF" font-family="Helvetica Neue, Helvetica, Arial, sans-serif"> discretisation</text><text class="caption" text-anchor="middle" pointer-events="none" x="0" y="10" font-size="10px" fill="#FFFFFF" font-family="Helvetica Neue, Helvetica, Arial, sans-serif"> scheme applied</text><text class="caption" text-anchor="middle" pointer-events="none" x="0" y="20" font-size="10px" fill="#FFFFFF" font-family="Helvetica Neue, Helvetica, Arial, sans-serif"> to the A</text></g><g class="node" aria-label="graph-node30" transform="translate(156.98961456425474,446.99704563226635)" style="touch-action: none; -webkit-tap-highlight-color: rgba(0, 0, 0, 0);"><circle class="b-outline" cx="0" cy="0" r="40" fill="#C990C0" stroke="#b261a5" stroke-width="2px"/><text class="caption" text-anchor="middle" pointer-events="none" x="0" y="-10" font-size="10px" fill="#FFFFFF" font-family="Helvetica Neue, Helvetica, Arial, sans-serif"> Star-Product</text><text class="caption" text-anchor="middle" pointer-events="none" x="0" y="0" font-size="10px" fill="#FFFFFF" font-family="Helvetica Neue, Helvetica, Arial, sans-serif"> and Massless</text><text class="caption" text-anchor="middle" pointer-events="none" x="0" y="10" font-size="10px" fill="#FFFFFF" font-family="Helvetica Neue, Helvetica, Arial, sans-serif"> Free Field</text><text class="caption" text-anchor="middle" pointer-events="none" x="0" y="20" font-size="10px" fill="#FFFFFF" font-family="Helvetica Neue, Helvetica, Arial, sans-serif">$…</text></g><g class="node" aria-label="graph-node31" transform="translate(-23.998490399066934,-299.61786143601523)" style="touch-action: none; -webkit-tap-highlight-color: rgba(0, 0, 0, 0);"><circle class="b-outline" cx="0" cy="0" r="40" fill="#C990C0" stroke="#b261a5" stroke-width="2px"/><text class="caption" text-anchor="middle" pointer-events="none" x="0" y="0" font-size="10px" fill="#FFFFFF" font-family="Helvetica Neue, Helvetica, Arial, sans-serif"> Noncommutative</text><text class="caption" text-anchor="middle" pointer-events="none" x="0" y="10" font-size="10px" fill="#FFFFFF" font-family="Helvetica Neue, Helvetica, Arial, sans-serif">eq…</text></g><g class="node" aria-label="graph-node29563" transform="translate(-190.03987034189817,-370.0159536386377)" style="touch-action: none; -webkit-tap-highlight-color: rgba(0, 0, 0, 0);"><circle class="b-outline" cx="0" cy="0" r="40" fill="#F16667" stroke="#eb2728" stroke-width="2px"/><text class="caption" text-anchor="middle" pointer-events="none" x="0" y="5" font-size="10px" fill="#FFFFFF" font-family="Helvetica Neue, Helvetica, Arial, sans-serif"> Eur.Phys.J.</text></g><g class="node" aria-label="graph-node32" transform="translate(2.8005619277765716,146.19818315663514)" style="touch-action: none; -webkit-tap-highlight-color: rgba(0, 0, 0, 0);"><circle class="b-outline" cx="0" cy="0" r="40" fill="#C990C0" stroke="#b261a5" stroke-width="2px"/><text class="caption" text-anchor="middle" pointer-events="none" x="0" y="-10" font-size="10px" fill="#FFFFFF" font-family="Helvetica Neue, Helvetica, Arial, sans-serif"> Universal</text><text class="caption" text-anchor="middle" pointer-events="none" x="0" y="0" font-size="10px" fill="#FFFFFF" font-family="Helvetica Neue, Helvetica, Arial, sans-serif"> Aspects of</text><text class="caption" text-anchor="middle" pointer-events="none" x="0" y="10" font-size="10px" fill="#FFFFFF" font-family="Helvetica Neue, Helvetica, Arial, sans-serif"> Gravity</text><text class="caption" text-anchor="middle" pointer-events="none" x="0" y="20" font-size="10px" fill="#FFFFFF" font-family="Helvetica Neue, Helvetica, Arial, sans-serif">Th…</text></g><g class="node" aria-label="graph-node33" transform="translate(-409.8547731343053,-114.2270985747914)" style="touch-action: none; -webkit-tap-highlight-color: rgba(0, 0, 0, 0);"><circle class="b-outline" cx="0" cy="0" r="40" fill="#C990C0" stroke="#b261a5" stroke-width="2px"/><text class="caption" text-anchor="middle" pointer-events="none" x="0" y="-15" font-size="10px" fill="#FFFFFF" font-family="Helvetica Neue, Helvetica, Arial, sans-serif"> Vacuum</text><text class="caption" text-anchor="middle" pointer-events="none" x="0" y="-5" font-size="10px" fill="#FFFFFF" font-family="Helvetica Neue, Helvetica, Arial, sans-serif"> Polarization and</text><text class="caption" text-anchor="middle" pointer-events="none" x="0" y="5" font-size="10px" fill="#FFFFFF" font-family="Helvetica Neue, Helvetica, Arial, sans-serif"> Energy</text><text class="caption" text-anchor="middle" pointer-events="none" x="0" y="15" font-size="10px" fill="#FFFFFF" font-family="Helvetica Neue, Helvetica, Arial, sans-serif"> Conditions at</text><text class="caption" text-anchor="middle" pointer-events="none" x="0" y="25" font-size="10px" fill="#FFFFFF" font-family="Helvetica Neue, Helvetica, Arial, sans-serif"> a Pla</text></g><g class="node" aria-label="graph-node34" transform="translate(-431.3643853248406,427.51205329620507)" style="touch-action: none; -webkit-tap-highlight-color: rgba(0, 0, 0, 0);"><circle class="b-outline" cx="0" cy="0" r="40" fill="#C990C0" stroke="#b261a5" stroke-width="2px"/><text class="caption" text-anchor="middle" pointer-events="none" x="0" y="-10" font-size="10px" fill="#FFFFFF" font-family="Helvetica Neue, Helvetica, Arial, sans-serif"> Super-Poincare</text><text class="caption" text-anchor="middle" pointer-events="none" x="0" y="0" font-size="10px" fill="#FFFFFF" font-family="Helvetica Neue, Helvetica, Arial, sans-serif"> Covariant</text><text class="caption" text-anchor="middle" pointer-events="none" x="0" y="10" font-size="10px" fill="#FFFFFF" font-family="Helvetica Neue, Helvetica, Arial, sans-serif"> Quantization of</text><text class="caption" text-anchor="middle" pointer-events="none" x="0" y="20" font-size="10px" fill="#FFFFFF" font-family="Helvetica Neue, Helvetica, Arial, sans-serif"> the Super</text></g><g class="node" aria-label="graph-node29564" transform="translate(-285.6273292359806,518.0701883306618)" style="touch-action: none; -webkit-tap-highlight-color: rgba(0, 0, 0, 0);"><circle class="b-outline" cx="0" cy="0" r="40" fill="#F16667" stroke="#eb2728" stroke-width="2px"/><text class="caption" text-anchor="middle" pointer-events="none" x="0" y="5" font-size="10px" fill="#FFFFFF" font-family="Helvetica Neue, Helvetica, Arial, sans-serif"> JHEP</text></g><g class="node" aria-label="graph-node35" transform="translate(-128.46745049152563,587.2289005015896)" style="touch-action: none; -webkit-tap-highlight-color: rgba(0, 0, 0, 0);"><circle class="b-outline" cx="0" cy="0" r="40" fill="#C990C0" stroke="#b261a5" stroke-width="2px"/><text class="caption" text-anchor="middle" pointer-events="none" x="0" y="-10" font-size="10px" fill="#FFFFFF" font-family="Helvetica Neue, Helvetica, Arial, sans-serif"> Dynamics of</text><text class="caption" text-anchor="middle" pointer-events="none" x="0" y="0" font-size="10px" fill="#FFFFFF" font-family="Helvetica Neue, Helvetica, Arial, sans-serif"> Supersymmetric</text><text class="caption" text-anchor="middle" pointer-events="none" x="0" y="10" font-size="10px" fill="#FFFFFF" font-family="Helvetica Neue, Helvetica, Arial, sans-serif"> SU(n_c) and</text><text class="caption" text-anchor="middle" pointer-events="none" x="0" y="20" font-size="10px" fill="#FFFFFF" font-family="Helvetica Neue, Helvetica, Arial, sans-serif"> USp(2n_c) G</text></g></g></svg>